<svg width="31" height="32" viewBox="0 0 31 32" fill="none" xmlns="http://www.w3.org/2000/svg">
<g clip-path="url(#clip0_1_126)">
<path d="M30.4842 16.2901C30.4842 15.02 30.3821 14.0932 30.1613 13.1321H15.7988V18.8645H24.2292C24.0593 20.2891 23.1415 22.4344 21.1018 23.8761L21.0732 24.068L25.6144 27.6203L25.929 27.652C28.8184 24.9574 30.4842 20.9927 30.4842 16.2901Z" fill="#4285F4"/>
<path d="M15.7989 31.3935C19.9291 31.3935 23.3964 30.0204 25.9291 27.652L21.1019 23.876C19.8102 24.7857 18.0764 25.4207 15.7989 25.4207C11.7536 25.4207 8.32028 22.7262 7.09638 19.0018L6.91699 19.0172L2.19505 22.7073L2.1333 22.8806C4.64882 27.9265 9.81591 31.3935 15.7989 31.3935Z" fill="#34A853"/>
<path d="M7.09621 19.0017C6.77328 18.0406 6.58638 17.0108 6.58638 15.9467C6.58638 14.8825 6.77328 13.8528 7.07922 12.8917L7.07067 12.687L2.28956 8.93762L2.13313 9.01276C1.09636 11.1067 0.501465 13.4581 0.501465 15.9467C0.501465 18.4353 1.09636 20.7866 2.13313 22.8805L7.09621 19.0017Z" fill="#FBBC05"/>
<path d="M15.7989 6.47271C18.6713 6.47271 20.6089 7.7256 21.7138 8.77262L26.031 4.51616C23.3795 2.02752 19.9291 0.5 15.7989 0.5C9.81591 0.5 4.64882 3.96691 2.1333 9.01281L7.07939 12.8917C8.32028 9.16734 11.7536 6.47271 15.7989 6.47271Z" fill="#EB4335"/>
</g>
<defs>
<clipPath id="clip0_1_126">
<rect width="30" height="31" fill="white" transform="translate(0.5 0.5)"/>
</clipPath>
</defs>
</svg>
