<svg width="52" height="52" viewBox="0 0 52 52" fill="none" xmlns="http://www.w3.org/2000/svg">
<path d="M25.8826 0.137939C19.0259 0.145606 12.4522 2.87281 7.6038 7.72123C2.75538 12.5697 0.0281744 19.1433 0.0205078 26C0.0319962 32.8555 2.76043 39.427 7.60802 44.2746C12.4556 49.1222 19.0271 51.8506 25.8826 51.8621C32.7416 51.8621 39.3197 49.1373 44.1698 44.2873C49.0199 39.4372 51.7446 32.8591 51.7446 26C51.7446 19.141 49.0199 12.5628 44.1698 7.71276C39.3197 2.86269 32.7416 0.137939 25.8826 0.137939ZM41.6129 40.9235C40.1605 37.9938 37.9182 35.5284 35.1391 33.8053C32.36 32.0822 29.1546 31.1701 25.8847 31.1718C22.6148 31.1735 19.4104 32.0891 16.6331 33.815C13.8558 35.541 11.6161 38.0088 10.1667 40.94C6.29964 36.9293 4.14487 31.5713 4.15844 26C4.15844 20.2384 6.44723 14.7128 10.5213 10.6387C14.5954 6.56466 20.121 4.27587 25.8826 4.27587C31.6442 4.27587 37.1698 6.56466 41.2439 10.6387C45.3179 14.7128 47.6067 20.2384 47.6067 26C47.6197 31.5635 45.4705 36.9145 41.6129 40.9235ZM25.8826 10.4828C24.0412 10.4828 22.2411 11.0288 20.71 12.0518C19.1789 13.0749 17.9856 14.529 17.2809 16.2302C16.5763 17.9314 16.3919 19.8034 16.7511 21.6095C17.1104 23.4155 17.9971 25.0744 19.2992 26.3765C20.6012 27.6786 22.2602 28.5653 24.0662 28.9246C25.8722 29.2838 27.7442 29.0994 29.4455 28.3948C31.1467 27.6901 32.6008 26.4967 33.6238 24.9657C34.6469 23.4346 35.1929 21.6345 35.1929 19.7931C35.1929 18.5705 34.9521 17.3598 34.4842 16.2302C34.0163 15.1006 33.3305 14.0743 32.466 13.2097C31.6014 12.3452 30.5751 11.6594 29.4455 11.1915C28.3159 10.7236 27.1052 10.4828 25.8826 10.4828Z" fill="#D1F5FF"/>
</svg>
